<svg width="512" height="512" version="1.1" viewBox="0 0 512 512" xmlns="http://www.w3.org/2000/svg"  fill="#fafafa"><path d="m324.27 256.09c9.3867 0 17.067-7.6824 17.067-17.072v-17.072c0-9.3895-7.68-17.072-17.067-17.072-9.3867 0-17.067 7.6824-17.067 17.072v17.072c0 9.3895 7.68 17.072 17.067 17.072zm-240.46-179.25c19.968 0 37.035 13.316 42.325 31.582-5.8027 5.8044-10.581 12.462-14.507 19.632h-24.747a44.203 44.216 0 0 1-44.203-44.216v-3.4144c0-2.0486 1.536-3.5851 3.584-3.5851zm138.07 264.61a17.067 17.072 0 1 1-34.133 0 17.067 17.072 0 0 1 34.133 0zm85.332 17.072a17.067 17.072 0 1 0 0-34.144 17.067 17.072 0 0 0 0 34.144z"/><path d="m207.34 1.6741-0.17071 0.085279c-5.1028 2.0315-10.342 4.6094-15.531 8.1945-21.537 14.255-35.157 34.963-37.614 59.222a85.076 85.103 0 0 0-68.692-35.014h-59.732a25.6 25.608 0 0 0-25.6 25.608v25.608a85.332 85.359 0 0 0 85.332 85.359v137.89a109.38 109.41 0 0 0-17.067 56.849 110.93 110.97 0 0 0 106.75 112.35 113.07 113.1 0 0 0 161.97 0 110.93 110.97 0 0 0 106.75-112.35 109.41 109.45 0 0 0-17.067-56.918v-137.82a85.332 85.359 0 0 0 85.332-85.359v-25.608a25.6 25.608 0 0 0-25.6-25.608h-59.732a85.06 85.086 0 0 0-54.886 20.145c-5.6148-17.755-17.51-33.205-34.373-44.353a77.824 77.848 0 0 0-15.514-8.1945l-0.17072-0.085279c-20.088-7.7678-38.161 12.992-29.729 31.669l0.0512 0.13664 0.0688 0.13664c5.4272 11.438 6.5364 22.928 2.4917 34.689h-57.036a154.5 154.55 0 0 1-1.3141-7.6142 97.211 97.241 0 0 1-1.1435-16.44c0.17072-5.3435 0.98991-8.7919 1.8603-10.636l0.0688-0.13664 0.0512-0.13664c8.4303-18.677-9.6432-39.437-29.731-31.669zm-28.142 100.78h93.867l23.552 23.56a94.548 94.579 0 0 0 66.9 27.656h28.449l0.2048 1.8779c0.23888 2.2194 0.3584 4.4387 0.3584 6.658v136.47a112.64 112.67 0 0 0-60.075-16.952h-93.524v-23.576c0-44.046-23.211-88.603-59.732-113.02-18.227-12.206-59.732-8.536-59.732-8.536h-34.133a51.2 51.216 0 0 1-51.2-51.216v-17.072h51.2a51.2 51.216 0 0 1 46.899 30.609l6.912 15.74 15.684-7.0336c7.68-3.4144 15.974-5.1899 24.371-5.1728zm0 341.44a76.8 76.824 0 0 1-76.8-77.968 75.776 75.8 0 0 1 13.943-42.816l1.1947-1.6901c15.804-14.136 38.229-23.046 63.385-22.621h151.55c24.609-0.0688 46.507 8.7407 62.003 22.585l1.1776 1.6731c8.8747 12.548 13.756 27.486 13.943 42.867a76.817 76.841 0 0 1-76.8 77.968zm27.784 17.072h97.894a79.308 79.332 0 0 1-82.26 9.5603 79.308 79.332 0 0 1-15.633-9.5603zm219.68-324.37h-22.392a79.188 79.214 0 0 0-3.8912-8.5359h24.747a44.203 44.216 0 0 0 44.203-44.216v-3.4144c0-2.0486-1.536-3.5851-3.584-3.5851h-37.547c-19.968 0-37.035 13.316-42.325 31.582 0.17072 0.17072 0.29008 0.32436 0.4096 0.49508a80.622 80.647 0 0 0-7.936-6.9824l1.3312-3.0729a51.2 51.216 0 0 1 46.984-30.558h51.2v17.072a51.2 51.216 0 0 1-51.2 51.216zm-256 102.43v-17.072c0-9.3895 7.68-17.072 17.067-17.072 9.3867 0 17.067 7.6824 17.067 17.072v17.072c0 9.3895-7.68 17.072-17.067 17.072-9.3867 0-17.067-7.6824-17.067-17.072z"/></svg>
