<svg width="512" height="512" version="1.1" viewBox="0 0 512 512" xmlns="http://www.w3.org/2000/svg"><rect width="512" height="512" rx="96" ry="96" fill="#fafafa" fill-opacity=".75" fill-rule="evenodd"/><path d="m317.07 256.08c8.3967 0 15.267-6.8721 15.267-15.271v-15.271c0-8.3992-6.87-15.271-15.267-15.271-8.3967 0-15.267 6.8721-15.267 15.271v15.271c0 8.3992 6.87 15.271 15.267 15.271zm-215.1-160.34c17.862 0 33.129 11.912 37.861 28.251-5.1907 5.1923-9.4652 11.148-12.977 17.561h-22.137a39.541 39.552 0 0 1-39.541-39.552v-3.0543c0-1.8326 1.374-3.207 3.206-3.207zm123.51 236.7a15.267 15.271 0 1 1-30.533 0 15.267 15.271 0 0 1 30.533 0zm76.332 15.271a15.267 15.271 0 1 0 0-30.543 15.267 15.271 0 0 0 0 30.543z"/><path d="m212.47 28.498-0.1527 0.07629c-4.5647 1.8172-9.2516 4.1233-13.893 7.3302-19.266 12.751-31.449 31.275-33.647 52.976a76.103 76.128 0 0 0-61.447-31.321h-53.433a22.9 22.907 0 0 0-22.9 22.907v22.907a76.332 76.357 0 0 0 76.332 76.357v123.35a97.844 97.874 0 0 0-15.267 50.853 99.232 99.264 0 0 0 95.492 100.5 101.14 101.17 0 0 0 144.88 0 99.232 99.264 0 0 0 95.492-100.5 97.874 97.904 0 0 0-15.267-50.915v-123.29a76.332 76.357 0 0 0 76.332-76.357v-22.907a22.9 22.907 0 0 0-22.9-22.907h-53.433a76.089 76.112 0 0 0-49.097 18.021c-5.0227-15.882-15.664-29.703-30.747-39.675a69.616 69.637 0 0 0-13.877-7.3302l-0.15271-0.07629c-17.969-6.9485-34.137 11.621-26.594 28.329l0.0458 0.12223 0.0616 0.12223c4.8548 10.232 5.847 20.51 2.2289 31.031h-51.021a138.21 138.25 0 0 1-1.1755-6.8111 86.958 86.985 0 0 1-1.0229-14.706c0.15271-4.7799 0.8855-7.8647 1.6641-9.514l0.0615-0.12223 0.0458-0.12223c7.5412-16.707-8.6261-35.277-26.595-28.329zm-25.174 90.147h83.967l21.068 21.075a84.576 84.604 0 0 0 59.844 24.739h25.449l0.1832 1.6798c0.21368 1.9853 0.3206 3.9706 0.3206 5.9558v122.08a100.76 100.79 0 0 0-53.739-15.164h-83.66v-21.089c0-39.401-20.763-79.258-53.433-101.1-16.305-10.919-53.433-7.6357-53.433-7.6357h-30.533a45.8 45.814 0 0 1-45.8-45.814v-15.271h45.8a45.8 45.814 0 0 1 41.953 27.381l6.183 14.08 14.03-6.2917c6.87-3.0543 14.29-4.6425 21.801-4.6272zm0 305.43a68.7 68.721 0 0 1-68.7-69.744 67.784 67.805 0 0 1 12.473-38.3l1.0687-1.5118c14.137-12.645 34.197-20.616 56.7-20.235h135.57c22.014-0.0615 41.602 7.8189 55.463 20.203l1.0534 1.4966c7.9387 11.224 12.305 24.587 12.473 38.346a68.715 68.737 0 0 1-68.7 69.744zm24.854 15.271h87.569a70.944 70.965 0 0 1-73.584 8.552 70.944 70.965 0 0 1-13.984-8.552zm196.51-290.16h-20.03a70.836 70.859 0 0 0-3.4808-7.6357h22.137a39.541 39.552 0 0 0 39.541-39.552v-3.0543c0-1.8326-1.374-3.207-3.206-3.207h-33.587c-17.862 0-33.129 11.912-37.861 28.251 0.15271 0.15271 0.25949 0.29015 0.3664 0.44286a72.119 72.142 0 0 0-7.099-6.2459l1.1908-2.7488a45.8 45.814 0 0 1 42.028-27.335h45.8v15.271a45.8 45.814 0 0 1-45.8 45.814zm-229 91.628v-15.271c0-8.3992 6.87-15.271 15.267-15.271 8.3967 0 15.267 6.8721 15.267 15.271v15.271c0 8.3992-6.87 15.271-15.267 15.271-8.3967 0-15.267-6.8721-15.267-15.271z"/></svg>
