<svg width="512" height="512" version="1.1" viewBox="0 0 512 512" xmlns="http://www.w3.org/2000/svg"><rect width="512" height="512" rx="96" ry="96" fill="#fafafa" fill-opacity=".75" fill-rule="evenodd"/><path d="m297.07 256.06c5.6467 0 10.267-4.6214 10.267-10.27v-10.27c0-5.6484-4.62-10.27-10.267-10.27-5.6467 0-10.267 4.6214-10.267 10.27v10.27c0 5.6484 4.62 10.27 10.267 10.27zm-144.65-107.83c12.012 0 22.279 8.0104 25.461 18.999-3.4907 3.4917-6.3653 7.497-8.7266 11.81h-14.887a26.591 26.599 0 0 1-26.591-26.599v-2.054c0-1.2324 0.92399-2.1567 2.156-2.1567zm83.056 159.18a10.267 10.27 0 1 1-20.533 0 10.267 10.27 0 0 1 20.533 0zm51.333 10.27a10.267 10.27 0 1 0 0-20.54 10.267 10.27 0 0 0 0 20.54z"/><path d="m226.73 103.01-0.10269 0.0513c-3.0697 1.2221-6.2216 2.7728-9.3426 4.9295-12.956 8.5752-21.149 21.032-22.627 35.626a51.179 51.195 0 0 0-41.323-21.063h-35.933a15.4 15.405 0 0 0-15.4 15.405v15.405a51.333 51.349 0 0 0 51.333 51.349v82.95a65.799 65.819 0 0 0-10.267 34.198 66.733 66.754 0 0 0 64.218 67.585 68.017 68.038 0 0 0 97.433 0 66.733 66.754 0 0 0 64.218-67.585 65.819 65.839 0 0 0-10.267-34.24v-82.908a51.333 51.349 0 0 0 51.333-51.349v-15.405a15.4 15.405 0 0 0-15.4-15.405h-35.933a51.169 51.184 0 0 0-33.017 12.119c-3.3777-10.681-10.534-19.975-20.677-26.681a46.816 46.83 0 0 0-9.3323-4.9295l-0.1027-0.0513c-12.084-4.6728-22.956 7.8153-17.884 19.051l0.0308 0.0822 0.0414 0.0822c3.2648 6.8808 3.9321 13.793 1.4989 20.868h-34.311a92.943 92.972 0 0 1-0.7905-4.5804 58.478 58.497 0 0 1-0.6879-9.8896c0.1027-3.2144 0.5955-5.2889 1.1191-6.3981l0.0414-0.0822 0.0308-0.0822c5.0714-11.235-5.801-23.724-17.885-19.051zm-16.929 60.623h56.467l14.168 14.173a56.877 56.895 0 0 0 40.245 16.637h17.114l0.1232 1.1297c0.1437 1.3351 0.2156 2.6702 0.2156 4.0052v82.097a67.76 67.781 0 0 0-36.139-10.198h-56.261v-14.182c0-26.496-13.963-53.3-35.933-67.986-10.965-7.3429-35.933-5.1349-35.933-5.1349h-20.533a30.8 30.809 0 0 1-30.8-30.809v-10.27h30.8a30.8 30.809 0 0 1 28.213 18.413l4.158 9.4687 9.435-4.2311c4.62-2.054 9.6095-3.122 14.661-3.1117zm0 205.4a46.2 46.214 0 0 1-46.2-46.902 45.584 45.598 0 0 1 8.3878-25.756l0.71867-1.0167c9.5068-8.5034 22.997-13.864 38.13-13.608h91.167c14.804-0.0414 27.977 5.2581 37.299 13.587l0.70839 1.0065c5.3387 7.5483 8.2748 16.535 8.3878 25.787a46.21 46.225 0 0 1-46.2 46.902zm16.714 10.27h58.889a47.709 47.723 0 0 1-49.485 5.7511 47.709 47.723 0 0 1-9.4042-5.7511zm132.15-195.13h-13.47a47.637 47.652 0 0 0-2.3408-5.1349h14.887a26.591 26.599 0 0 0 26.591-26.599v-2.054c0-1.2324-0.92399-2.1567-2.156-2.1567h-22.587c-12.012 0-22.279 8.0104-25.461 18.999 0.1027 0.1027 0.1745 0.19512 0.2464 0.29782a48.499 48.514 0 0 0-4.774-4.2003l0.8008-1.8486a30.8 30.809 0 0 1 28.264-18.383h30.8v10.27a30.8 30.809 0 0 1-30.8 30.809zm-154 61.619v-10.27c0-5.6484 4.62-10.27 10.267-10.27 5.6467 0 10.267 4.6214 10.267 10.27v10.27c0 5.6484-4.62 10.27-10.267 10.27-5.6467 0-10.267-4.6214-10.267-10.27z"/></svg>
